<svg width="25" height="24" viewBox="0 0 25 24" fill="none" xmlns="http://www.w3.org/2000/svg">
<path d="M23.2134 19.8079L20.3937 16.9895C20.2464 16.8423 20.0568 16.7448 19.8513 16.7108C19.6458 16.6767 19.4349 16.7079 19.248 16.7998L18.2938 15.8455C19.7231 13.9853 20.3911 11.651 20.1623 9.31629C19.9335 6.98157 18.8249 4.82137 17.0616 3.27409C15.2983 1.72681 13.0124 0.908385 10.6677 0.9849C8.32304 1.06142 6.09532 2.02714 4.43665 3.68609C2.78146 5.3455 1.8189 7.57202 1.74398 9.91459C1.66906 12.2572 2.48738 14.5406 4.03315 16.3024C5.57893 18.0642 7.73658 19.1725 10.069 19.4029C12.4014 19.6333 14.7342 18.9685 16.5948 17.5432L17.549 18.4974C17.4573 18.6845 17.4264 18.8955 17.4606 19.101C17.4949 19.3064 17.5926 19.496 17.7401 19.6431L20.5598 22.4628C20.9135 22.8066 21.3884 22.9974 21.8817 22.9939C22.375 22.9904 22.847 22.7928 23.1959 22.444C23.5447 22.0952 23.7422 21.6231 23.7457 21.1298C23.7492 20.6365 23.5585 20.1617 23.2147 19.8079H23.2134ZM16.4188 16.8604L16.4102 16.8682C14.7042 18.2667 12.5256 18.9555 10.3256 18.7918C8.12569 18.6282 6.07299 17.6246 4.59269 15.989C3.1124 14.3533 2.31794 12.211 2.37386 10.0057C2.42979 7.80036 3.33182 5.70105 4.89311 4.14256C6.45268 2.58679 8.55022 1.68947 10.7524 1.63595C12.9547 1.58243 15.0933 2.37681 16.7266 3.85498C18.3599 5.33315 19.3631 7.38218 19.5288 9.57881C19.6946 11.7754 19.0104 13.9518 17.6174 15.6584L17.608 15.6696C17.4307 15.8847 17.2423 16.0922 17.0427 16.2921C16.843 16.492 16.6351 16.6815 16.4188 16.8604ZM17.0947 17.1298C17.2328 17.0067 17.3683 16.8802 17.5 16.7486C17.6316 16.6169 17.7581 16.4814 17.8812 16.3433L18.7541 17.2167L17.9681 18.0027L17.0947 17.1298ZM22.7569 22.0064C22.5258 22.2372 22.2125 22.3668 21.8859 22.3668C21.5593 22.3668 21.246 22.2372 21.0149 22.0064L18.1952 19.1867C18.1291 19.1204 18.092 19.0306 18.092 18.9369C18.092 18.8433 18.1291 18.7535 18.1952 18.6872L19.4377 17.4447C19.504 17.3786 19.5938 17.3414 19.6875 17.3414C19.7811 17.3414 19.8709 17.3786 19.9372 17.4447L22.7569 20.2644C22.9877 20.4955 23.1173 20.8088 23.1173 21.1354C23.1173 21.462 22.9877 21.7752 22.7569 22.0064ZM14.4738 7.91176H13.1401V7.41571C13.1399 7.17513 13.0443 6.94445 12.8743 6.77422C12.7043 6.60398 12.4738 6.50808 12.2332 6.50751H9.70346C9.46266 6.50773 9.23179 6.60349 9.06151 6.77376C8.89124 6.94404 8.79548 7.17491 8.79525 7.41571V7.91176H7.46156C7.23556 7.91187 7.01884 8.0017 6.85903 8.16151C6.69923 8.32132 6.6094 8.53803 6.60928 8.76404V13.0745C6.6094 13.3005 6.69921 13.5173 6.85901 13.6771C7.0188 13.837 7.23552 13.9269 7.46156 13.9272H14.4742C14.7002 13.9268 14.9169 13.8369 15.0766 13.677C15.2364 13.5172 15.3263 13.3005 15.3265 13.0745V8.76404C15.3263 8.53799 15.2363 8.32128 15.0765 8.16149C14.9166 8.00169 14.6998 7.91187 14.4738 7.91176ZM9.44016 7.41571C9.44028 7.34603 9.46801 7.27923 9.51728 7.22996C9.56655 7.18069 9.63335 7.15296 9.70303 7.15284H12.2332C12.3029 7.15296 12.3697 7.18069 12.4189 7.22996C12.4682 7.27923 12.4959 7.34603 12.496 7.41571V7.91176H9.44145L9.44016 7.41571ZM14.6812 13.0745C14.6812 13.1295 14.6593 13.1822 14.6204 13.2211C14.5815 13.26 14.5288 13.2818 14.4738 13.2818H7.46113C7.4062 13.2817 7.35357 13.2598 7.31477 13.2209C7.27598 13.1821 7.25419 13.1294 7.25419 13.0745V10.3382L9.99902 11.533V11.7429C9.99925 11.9083 10.0651 12.0668 10.182 12.1838C10.2989 12.3007 10.4575 12.3665 10.6229 12.3667H11.3112C11.4766 12.3665 11.6351 12.3007 11.7521 12.1838C11.869 12.0668 11.9348 11.9083 11.935 11.7429V11.533L14.6812 10.3382V13.0745ZM10.6452 11.7214V11.0761H11.2906V11.7214H10.6452ZM14.6812 9.63266L11.8989 10.8433C11.8557 10.7222 11.7761 10.6174 11.6711 10.5432C11.5661 10.4691 11.4407 10.4292 11.3121 10.429H10.6237C10.4953 10.4299 10.3703 10.4703 10.2657 10.5447C10.1611 10.6191 10.0819 10.724 10.039 10.845L7.25505 9.63266V8.76404C7.25516 8.70919 7.277 8.65662 7.31579 8.61783C7.35457 8.57905 7.40714 8.55721 7.46199 8.5571H14.4747C14.5296 8.5571 14.5823 8.57889 14.6211 8.61768C14.66 8.65648 14.6819 8.70911 14.682 8.76404L14.6812 9.63266ZM16.2683 4.91696C13.3457 1.99445 8.59004 1.99445 5.66752 4.91696C4.26177 6.32271 3.47203 8.22931 3.47203 10.2173C3.47203 12.2054 4.26177 14.112 5.66752 15.5177C7.07327 16.9235 8.97987 17.7132 10.9679 17.7132C12.9559 17.7132 14.8625 16.9235 16.2683 15.5177C16.9643 14.8217 17.5165 13.9953 17.8932 13.0859C18.2699 12.1764 18.4638 11.2017 18.4638 10.2173C18.4638 9.23296 18.2699 8.25823 17.8932 7.34879C17.5165 6.43935 16.9643 5.61302 16.2683 4.91696ZM15.8122 15.0617C14.6915 16.1826 13.2168 16.8803 11.6393 17.0359C10.0618 17.1914 8.47926 16.7952 7.16119 15.9147C5.84313 15.0342 4.87116 13.7239 4.41089 12.207C3.95062 10.6902 4.03054 9.06073 4.63702 7.59622C5.2435 6.13172 6.33902 4.92282 7.73691 4.1755C9.13481 3.42819 10.7486 3.1887 12.3033 3.49785C13.8579 3.807 15.2573 4.64565 16.263 5.87091C17.2686 7.09617 17.8183 8.63222 17.8184 10.2173C17.8195 11.1171 17.6429 12.0083 17.2987 12.8397C16.9544 13.671 16.4492 14.4261 15.8122 15.0617Z" fill="#9597A6" stroke="#9597A6" stroke-width="0.4"/>
</svg>
