<svg width="25" height="24" viewBox="0 0 25 24" fill="none" xmlns="http://www.w3.org/2000/svg">
<circle cx="10.9894" cy="10.239" r="7.64227" fill="#3D22A0"/>
<path d="M23.2134 19.8079L20.3937 16.9895C20.2464 16.8423 20.0568 16.7448 19.8513 16.7108C19.6458 16.6767 19.4349 16.7079 19.248 16.7998L18.2938 15.8455C19.7231 13.9853 20.3911 11.651 20.1623 9.31629C19.9335 6.98157 18.8249 4.82137 17.0616 3.27409C15.2983 1.72681 13.0124 0.908385 10.6677 0.9849C8.32304 1.06142 6.09532 2.02714 4.43665 3.68609C2.78146 5.3455 1.8189 7.57202 1.74398 9.91459C1.66906 12.2572 2.48738 14.5406 4.03315 16.3024C5.57893 18.0642 7.73658 19.1725 10.069 19.4029C12.4014 19.6333 14.7342 18.9685 16.5948 17.5432L17.549 18.4974C17.4573 18.6845 17.4264 18.8955 17.4606 19.101C17.4949 19.3064 17.5926 19.496 17.7401 19.6431L20.5598 22.4628C20.9135 22.8066 21.3884 22.9974 21.8817 22.9939C22.375 22.9904 22.847 22.7928 23.1959 22.444C23.5447 22.0952 23.7422 21.6231 23.7457 21.1298C23.7492 20.6365 23.5585 20.1617 23.2147 19.8079H23.2134ZM16.4188 16.8604L16.4102 16.8682C14.7042 18.2667 12.5256 18.9555 10.3256 18.7918C8.12569 18.6282 6.07299 17.6246 4.59269 15.989C3.1124 14.3533 2.31794 12.211 2.37386 10.0057C2.42979 7.80036 3.33182 5.70105 4.89311 4.14256C6.45268 2.58679 8.55022 1.68947 10.7524 1.63595C12.9547 1.58243 15.0933 2.37681 16.7266 3.85498C18.3599 5.33315 19.3631 7.38218 19.5288 9.57881C19.6946 11.7754 19.0104 13.9518 17.6174 15.6584L17.608 15.6696C17.4307 15.8847 17.2423 16.0922 17.0427 16.2921C16.843 16.492 16.6351 16.6815 16.4188 16.8604ZM17.0947 17.1298C17.2328 17.0067 17.3683 16.8802 17.5 16.7486C17.6316 16.6169 17.7581 16.4814 17.8812 16.3433L18.7541 17.2167L17.9681 18.0027L17.0947 17.1298ZM22.7569 22.0064C22.5258 22.2372 22.2125 22.3668 21.8859 22.3668C21.5593 22.3668 21.246 22.2372 21.0149 22.0064L18.1952 19.1867C18.1291 19.1204 18.092 19.0306 18.092 18.9369C18.092 18.8433 18.1291 18.7535 18.1952 18.6872L19.4377 17.4447C19.504 17.3786 19.5938 17.3414 19.6875 17.3414C19.7811 17.3414 19.8709 17.3786 19.9372 17.4447L22.7569 20.2644C22.9877 20.4955 23.1173 20.8088 23.1173 21.1354C23.1173 21.462 22.9877 21.7752 22.7569 22.0064ZM16.2683 4.91696C13.3457 1.99445 8.59004 1.99445 5.66752 4.91696C4.26177 6.32271 3.47203 8.22931 3.47203 10.2173C3.47203 12.2054 4.26177 14.112 5.66752 15.5177C7.07327 16.9235 8.97987 17.7132 10.9679 17.7132C12.9559 17.7132 14.8625 16.9235 16.2683 15.5177C16.9643 14.8217 17.5165 13.9953 17.8932 13.0859C18.2699 12.1764 18.4638 11.2017 18.4638 10.2173C18.4638 9.23296 18.2699 8.25823 17.8932 7.34879C17.5165 6.43935 16.9643 5.61302 16.2683 4.91696ZM15.8122 15.0617C14.6915 16.1826 13.2168 16.8803 11.6393 17.0359C10.0618 17.1914 8.47926 16.7952 7.16119 15.9147C5.84313 15.0342 4.87116 13.7239 4.41089 12.207C3.95062 10.6902 4.03054 9.06073 4.63702 7.59622C5.2435 6.13172 6.33902 4.92282 7.73691 4.1755C9.13481 3.42819 10.7486 3.1887 12.3033 3.49785C13.8579 3.807 15.2573 4.64565 16.263 5.87091C17.2686 7.09617 17.8183 8.63222 17.8184 10.2173C17.8195 11.1171 17.6429 12.0083 17.2987 12.8397C16.9544 13.671 16.4492 14.4261 15.8122 15.0617Z" fill="#3D22A0" stroke="#3D22A0" stroke-width="0.4"/>
<path d="M13.1617 7.93331H14.4954C14.7214 7.93342 14.9382 8.02324 15.098 8.18303C15.2579 8.34283 15.3478 8.55954 15.3481 8.78558V13.096C15.3478 13.322 15.258 13.5387 15.0982 13.6986C14.9385 13.8584 14.7218 13.9484 14.4958 13.9487H7.48314C7.25709 13.9485 7.04038 13.8586 6.88058 13.6987C6.72079 13.5388 6.63097 13.322 6.63086 13.096V8.78558C6.63097 8.55958 6.7208 8.34287 6.88061 8.18306C7.04042 8.02325 7.25713 7.93342 7.48314 7.93331H8.81683V7.43726C8.81706 7.19646 8.91282 6.96558 9.08309 6.79531C9.25336 6.62504 9.48424 6.52928 9.72504 6.52905H12.2548C12.4953 6.52962 12.7259 6.62553 12.8959 6.79577C13.0659 6.966 13.1614 7.19668 13.1617 7.43726V7.93331Z" fill="white" stroke="#3D22A0" stroke-width="0.4"/>
</svg>
