<svg width="24" height="25" viewBox="0 0 24 25" fill="none" xmlns="http://www.w3.org/2000/svg">
<path d="M14.73 2.5H9.27002V6.86H14.73V2.5Z" fill="#3D22A0"/>
<path d="M16.23 2.5V6.86H21.87C21.36 4.11 19.33 2.51 16.23 2.5Z" fill="#3D22A0"/>
<path d="M2 8.36011V16.6901C2 20.3301 4.17 22.5001 7.81 22.5001H16.19C19.83 22.5001 22 20.3301 22 16.6901V8.36011H2ZM14.44 16.6801L12.36 17.8801C11.92 18.1301 11.49 18.2601 11.09 18.2601C10.79 18.2601 10.52 18.1901 10.27 18.0501C9.69 17.7201 9.37 17.0401 9.37 16.1601V13.7601C9.37 12.8801 9.69 12.2001 10.27 11.8701C10.85 11.5301 11.59 11.5901 12.36 12.0401L14.44 13.2401C15.21 13.6801 15.63 14.3001 15.63 14.9701C15.63 15.6401 15.2 16.2301 14.44 16.6801Z" fill="#3D22A0"/>
<path d="M7.77 2.5C4.67 2.51 2.64 4.11 2.13 6.86H7.77V2.5Z" fill="#3D22A0"/>
</svg>
