<svg width="345" height="48" viewBox="0 0 345 48" fill="none" xmlns="http://www.w3.org/2000/svg">
<rect x="14.5" y="5" width="38" height="38" rx="19" stroke="#3D7B42" stroke-width="3"/>
<rect x="18.5" y="9" width="30" height="30" rx="15" fill="#3D7B42"/>
<path d="M31.9679 20.6V18.794H35.3419V29H33.3259V20.6H31.9679Z" fill="white"/>
<rect x="52.5" y="23" width="14.5" height="2" fill="#3D7B42"/>
<rect x="67" y="23" width="18.75" height="2" fill="#DCDCDC"/>
<rect x="85.75" y="8" width="32" height="32" rx="16" fill="#DCDCDC"/>
<path d="M99.432 26.33C100.328 25.5553 101.033 24.9207 101.546 24.426C102.069 23.922 102.503 23.3993 102.848 22.858C103.193 22.3167 103.366 21.7753 103.366 21.234C103.366 20.674 103.231 20.2353 102.96 19.918C102.699 19.6007 102.283 19.442 101.714 19.442C101.163 19.442 100.734 19.6193 100.426 19.974C100.127 20.3193 99.9686 20.786 99.95 21.374H98.41C98.438 20.31 98.7553 19.498 99.362 18.938C99.978 18.3687 100.757 18.084 101.7 18.084C102.717 18.084 103.511 18.364 104.08 18.924C104.659 19.484 104.948 20.2307 104.948 21.164C104.948 21.836 104.775 22.4847 104.43 23.11C104.094 23.726 103.688 24.2813 103.212 24.776C102.745 25.2613 102.148 25.826 101.42 26.47L100.79 27.03H105.228V28.36H98.424V27.198L99.432 26.33Z" fill="#444444"/>
<rect x="117.75" y="23" width="18.75" height="2" fill="#DCDCDC"/>
<rect x="136.5" y="23" width="18.75" height="2" fill="#DCDCDC"/>
<rect x="155.25" y="8" width="32" height="32" rx="16" fill="#DCDCDC"/>
<path d="M167.906 20.814C167.962 19.946 168.293 19.2693 168.9 18.784C169.516 18.2987 170.3 18.056 171.252 18.056C171.905 18.056 172.47 18.1727 172.946 18.406C173.422 18.6393 173.781 18.9567 174.024 19.358C174.266 19.7593 174.388 20.212 174.388 20.716C174.388 21.2947 174.234 21.7893 173.926 22.2C173.618 22.6107 173.249 22.886 172.82 23.026V23.082C173.37 23.25 173.8 23.558 174.108 24.006C174.416 24.4447 174.57 25.0093 174.57 25.7C174.57 26.2507 174.444 26.7407 174.192 27.17C173.94 27.5993 173.566 27.94 173.072 28.192C172.577 28.4347 171.984 28.556 171.294 28.556C170.286 28.556 169.455 28.2993 168.802 27.786C168.158 27.2633 167.812 26.5167 167.766 25.546H169.306C169.343 26.0407 169.534 26.4467 169.88 26.764C170.225 27.072 170.692 27.226 171.28 27.226C171.849 27.226 172.288 27.072 172.596 26.764C172.904 26.4467 173.058 26.0407 173.058 25.546C173.058 24.8927 172.848 24.4307 172.428 24.16C172.017 23.88 171.382 23.74 170.524 23.74H170.16V22.424H170.538C171.294 22.4147 171.868 22.2887 172.26 22.046C172.661 21.8033 172.862 21.4207 172.862 20.898C172.862 20.45 172.717 20.0953 172.428 19.834C172.138 19.5633 171.728 19.428 171.196 19.428C170.673 19.428 170.267 19.5633 169.978 19.834C169.688 20.0953 169.516 20.422 169.46 20.814H167.906Z" fill="#444444"/>
<rect x="187.25" y="23" width="18.75" height="2" fill="#DCDCDC"/>
<rect x="206" y="23" width="18.75" height="2" fill="#DCDCDC"/>
<rect x="224.75" y="8" width="32" height="32" rx="16" fill="#DCDCDC"/>
<path d="M236.862 26.372V25.168L241.566 18.42H243.498V24.986H244.8V26.372H243.498V28.5H241.93V26.372H236.862ZM242 20.044L238.696 24.986H242V20.044Z" fill="#444444"/>
<rect x="256.75" y="23" width="18.75" height="2" fill="#DCDCDC"/>
<rect x="275.5" y="23" width="18.75" height="2" fill="#DCDCDC"/>
<rect x="294.25" y="8" width="32" height="32" rx="16" fill="#DCDCDC"/>
<path d="M313.199 19.666H308.509V22.452C308.705 22.1907 308.995 21.9713 309.377 21.794C309.769 21.6167 310.185 21.528 310.623 21.528C311.407 21.528 312.042 21.696 312.527 22.032C313.022 22.368 313.372 22.7927 313.577 23.306C313.792 23.8193 313.899 24.3607 313.899 24.93C313.899 25.6207 313.764 26.2367 313.493 26.778C313.232 27.31 312.835 27.73 312.303 28.038C311.781 28.346 311.137 28.5 310.371 28.5C309.354 28.5 308.537 28.248 307.921 27.744C307.305 27.24 306.937 26.5727 306.815 25.742H308.369C308.472 26.1807 308.701 26.5307 309.055 26.792C309.41 27.044 309.853 27.17 310.385 27.17C311.048 27.17 311.543 26.9693 311.869 26.568C312.205 26.1667 312.373 25.6347 312.373 24.972C312.373 24.3 312.205 23.7867 311.869 23.432C311.533 23.068 311.039 22.886 310.385 22.886C309.928 22.886 309.541 23.0027 309.223 23.236C308.915 23.46 308.691 23.768 308.551 24.16H307.039V18.266H313.199V19.666Z" fill="#444444"/>
<rect x="326.25" y="23" width="18.75" height="2" fill="#DCDCDC"/>
</svg>
